<svg xmlns="http://www.w3.org/2000/svg" viewBox="0 0 700 240" width="700" height="240">
  <defs>
    <linearGradient id="g1" x1="0%" y1="0%" x2="0%" y2="100%"><stop offset="0%" style="stop-color:#1b5e20"/><stop offset="100%" style="stop-color:#2e7d32"/></linearGradient>
    <linearGradient id="g2" x1="0%" y1="0%" x2="0%" y2="100%"><stop offset="0%" style="stop-color:#0d47a1"/><stop offset="100%" style="stop-color:#1565c0"/></linearGradient>
    <linearGradient id="g3" x1="0%" y1="0%" x2="0%" y2="100%"><stop offset="0%" style="stop-color:#e65100"/><stop offset="100%" style="stop-color:#ef6c00"/></linearGradient>
    <linearGradient id="g4" x1="0%" y1="0%" x2="0%" y2="100%"><stop offset="0%" style="stop-color:#4a148c"/><stop offset="100%" style="stop-color:#6a1b9a"/></linearGradient>
    <marker id="arrow" viewBox="0 0 10 10" refX="8" refY="5" markerWidth="7" markerHeight="7" orient="auto-start-reverse">
      <path d="M0,0 L10,5 L0,10 z" fill="#7d8590"/>
    </marker>
  </defs>
  <rect width="700" height="240" fill="#0d1117" rx="12"/>

  <!-- Row 1: Steps 1 & 2 -->

  <!-- Step 1 -->
  <g transform="translate(45, 22)">
    <circle cx="16" cy="16" r="16" fill="url(#g1)"/>
    <text x="16" y="22" text-anchor="middle" font-family="sans-serif" font-size="18" fill="#fff" font-weight="bold">1</text>
    <text x="42" y="14" font-family="sans-serif" font-size="13" fill="#e4e4e4" font-weight="bold">Install via HACS</text>
    <text x="42" y="32" font-family="sans-serif" font-size="10" fill="#888">Add repo, install integration</text>
    <rect x="40" y="42" width="170" height="18" rx="9" fill="#1b5e20" opacity="0.3"/>
    <text x="50" y="55" font-family="sans-serif" font-size="9" fill="#66bb6a">HACS → Custom Repositories</text>
  </g>

  <!-- Arrow 1 → 2 -->
  <line x1="268" y1="38" x2="430" y2="38" stroke="#7d8590" stroke-width="1.5" marker-end="url(#arrow)"/>

  <!-- Step 2 -->
  <g transform="translate(445, 22)">
    <circle cx="16" cy="16" r="16" fill="url(#g2)"/>
    <text x="16" y="22" text-anchor="middle" font-family="sans-serif" font-size="18" fill="#fff" font-weight="bold">2</text>
    <text x="42" y="14" font-family="sans-serif" font-size="13" fill="#e4e4e4" font-weight="bold">Flash ESPHome</text>
    <text x="42" y="32" font-family="sans-serif" font-size="10" fill="#888">ESP32 firmware via install.yaml</text>
    <rect x="40" y="42" width="170" height="18" rx="9" fill="#0d47a1" opacity="0.3"/>
    <text x="50" y="55" font-family="sans-serif" font-size="9" fill="#42a5f5">USB or OTA flashing</text>
  </g>

  <!-- Connector 2 → 3 (down, across, down) -->
  <path d="M461 56 V 96 Q 461 104 453 104 H 69 Q 61 104 61 112 V 130" fill="none" stroke="#7d8590" stroke-width="1.5" marker-end="url(#arrow)"/>

  <!-- Row 2: Steps 3 & 4 -->

  <!-- Step 3 -->
  <g transform="translate(45, 148)">
    <circle cx="16" cy="16" r="16" fill="url(#g3)"/>
    <text x="16" y="22" text-anchor="middle" font-family="sans-serif" font-size="18" fill="#fff" font-weight="bold">3</text>
    <text x="42" y="14" font-family="sans-serif" font-size="13" fill="#e4e4e4" font-weight="bold">Add Integration</text>
    <text x="42" y="32" font-family="sans-serif" font-size="10" fill="#888">In HA Settings</text>
    <rect x="40" y="42" width="170" height="18" rx="9" fill="#e65100" opacity="0.3"/>
    <text x="50" y="55" font-family="sans-serif" font-size="9" fill="#ffa726">Auto-discover NSPanel</text>
  </g>

  <!-- Arrow 3 → 4 -->
  <line x1="268" y1="164" x2="430" y2="164" stroke="#7d8590" stroke-width="1.5" marker-end="url(#arrow)"/>

  <!-- Step 4 -->
  <g transform="translate(445, 148)">
    <circle cx="16" cy="16" r="16" fill="url(#g4)"/>
    <text x="16" y="22" text-anchor="middle" font-family="sans-serif" font-size="18" fill="#fff" font-weight="bold">4</text>
    <text x="42" y="14" font-family="sans-serif" font-size="13" fill="#e4e4e4" font-weight="bold">Configure Panels</text>
    <text x="42" y="32" font-family="sans-serif" font-size="10" fill="#888">Via HAUI frontend</text>
    <rect x="40" y="42" width="170" height="18" rx="9" fill="#4a148c" opacity="0.3"/>
    <text x="50" y="55" font-family="sans-serif" font-size="9" fill="#ce93d8">Add panels, assign entities</text>
  </g>

  <text x="350" y="228" text-anchor="middle" font-family="sans-serif" font-size="10" fill="#57606a">That's it — no YAML editing required.</text>
</svg>
