<svg xmlns="http://www.w3.org/2000/svg" viewBox="0 0 700 175" width="700" height="175">
  <defs>
    <linearGradient id="g1" x1="0%" y1="0%" x2="0%" y2="100%"><stop offset="0%" style="stop-color:#1b5e20"/><stop offset="100%" style="stop-color:#2e7d32"/></linearGradient>
    <linearGradient id="g2" x1="0%" y1="0%" x2="0%" y2="100%"><stop offset="0%" style="stop-color:#0d47a1"/><stop offset="100%" style="stop-color:#1565c0"/></linearGradient>
    <linearGradient id="g3" x1="0%" y1="0%" x2="0%" y2="100%"><stop offset="0%" style="stop-color:#e65100"/><stop offset="100%" style="stop-color:#ef6c00"/></linearGradient>
    <linearGradient id="g4" x1="0%" y1="0%" x2="0%" y2="100%"><stop offset="0%" style="stop-color:#4a148c"/><stop offset="100%" style="stop-color:#6a1b9a"/></linearGradient>
  </defs>
  <rect width="700" height="175" fill="#0d1117" rx="12"/>

  <!-- Step 1 -->
  <g transform="translate(20, 25)">
    <circle cx="16" cy="16" r="16" fill="url(#g1)"/>
    <text x="11" y="21" font-family="sans-serif" font-size="18" fill="#fff" font-weight="bold">1</text>
    <text x="42" y="14" font-family="sans-serif" font-size="13" fill="#e4e4e4" font-weight="bold">Install via HACS</text>
    <text x="42" y="32" font-family="sans-serif" font-size="10" fill="#888">Add repo, install integration</text>
    <rect x="40" y="42" width="140" height="18" rx="9" fill="#1b5e20" opacity="0.3"/>
    <text x="50" y="55" font-family="sans-serif" font-size="9" fill="#66bb6a">HACS → Custom Repositories</text>
  </g>

  <!-- Arrow 1 -->
  <g transform="translate(197, 45)">
    <line x1="0" y1="0" x2="30" y2="0" stroke="#555" stroke-width="1.5"/>
    <polygon points="26,-4 36,0 26,4" fill="#555"/>
  </g>

  <!-- Step 2 -->
  <g transform="translate(240, 25)">
    <circle cx="16" cy="16" r="16" fill="url(#g2)"/>
    <text x="11" y="21" font-family="sans-serif" font-size="18" fill="#fff" font-weight="bold">2</text>
    <text x="42" y="14" font-family="sans-serif" font-size="13" fill="#e4e4e4" font-weight="bold">Flash ESPHome</text>
    <text x="42" y="32" font-family="sans-serif" font-size="10" fill="#888">ESP32 firmware via install.yaml</text>
    <rect x="40" y="42" width="140" height="18" rx="9" fill="#0d47a1" opacity="0.3"/>
    <text x="50" y="55" font-family="sans-serif" font-size="9" fill="#42a5f5">USB or OTA flashing</text>
  </g>

  <!-- Arrow 2 -->
  <g transform="translate(417, 45)">
    <line x1="0" y1="0" x2="30" y2="0" stroke="#555" stroke-width="1.5"/>
    <polygon points="26,-4 36,0 26,4" fill="#555"/>
  </g>

  <!-- Step 3 -->
  <g transform="translate(460, 25)">
    <circle cx="16" cy="16" r="16" fill="url(#g3)"/>
    <text x="11" y="21" font-family="sans-serif" font-size="18" fill="#fff" font-weight="bold">3</text>
    <text x="42" y="14" font-family="sans-serif" font-size="13" fill="#e4e4e4" font-weight="bold">Add Integration</text>
    <text x="42" y="32" font-family="sans-serif" font-size="10" fill="#888">In HA Settings</text>
    <rect x="40" y="42" width="180" height="18" rx="9" fill="#e65100" opacity="0.3"/>
    <text x="50" y="55" font-family="sans-serif" font-size="9" fill="#ffa726">Auto-discover NSPanel</text>
  </g>

  <!-- Arrow 3 -->
  <g transform="translate(563, 85)">
    <line x1="0" y1="0" x2="0" y2="15" stroke="#555" stroke-width="1.5"/>
    <polygon points="-4,11 0,21 4,11" fill="#555"/>
  </g>

  <!-- Step 4 -->
  <g transform="translate(460, 105)">
    <circle cx="16" cy="16" r="16" fill="url(#g4)"/>
    <text x="11" y="21" font-family="sans-serif" font-size="18" fill="#fff" font-weight="bold">4</text>
    <text x="42" y="14" font-family="sans-serif" font-size="13" fill="#e4e4e4" font-weight="bold">Configure Panels</text>
    <text x="42" y="32" font-family="sans-serif" font-size="10" fill="#888">Via HAUI frontend</text>
    <rect x="40" y="42" width="200" height="18" rx="9" fill="#4a148c" opacity="0.3"/>
    <text x="50" y="55" font-family="sans-serif" font-size="9" fill="#ce93d8">Add panels, assign entities</text>
  </g>

  <text x="40" y="165" font-family="sans-serif" font-size="10" fill="#444">That's it — no YAML editing required.</text>
</svg>