<svg xmlns="http://www.w3.org/2000/svg" viewBox="0 0 160 120" width="160" height="120">
  <rect x="0" y="0" width="160" height="120" rx="8" ry="8" fill="#000"/>
  <!-- Sun + cloud icon (yellow sun + white cloud) -->
  <circle cx="34" cy="42" r="12" fill="#f5a623"/>
  <path d="M24 52 a6 6 0 0 1 1.2 -11.6 a8 8 0 0 1 15.6 2 a6 6 0 0 1 -0.8 9.6 Z" fill="#fff"/>
  <!-- Temperature -->
  <text x="110" y="42" text-anchor="middle" fill="#fff" font-family="sans-serif" font-size="26" font-weight="bold">24°</text>
  <text x="110" y="60" text-anchor="middle" fill="#888" font-family="sans-serif" font-size="7">Sunny</text>
  <!-- Full-width forecast cards -->
  <rect x="12" y="82" width="24" height="30" rx="3" fill="#222"/>
  <rect x="40" y="82" width="24" height="30" rx="3" fill="#222"/>
  <rect x="68" y="82" width="24" height="30" rx="3" fill="#222"/>
  <rect x="96" y="82" width="24" height="30" rx="3" fill="#222"/>
  <rect x="124" y="82" width="24" height="30" rx="3" fill="#222"/>
  <text x="24" y="92" text-anchor="middle" fill="#888" font-family="sans-serif" font-size="5">Mon</text>
  <text x="52" y="92" text-anchor="middle" fill="#888" font-family="sans-serif" font-size="5">Tue</text>
  <text x="80" y="92" text-anchor="middle" fill="#888" font-family="sans-serif" font-size="5">Wed</text>
  <text x="108" y="92" text-anchor="middle" fill="#888" font-family="sans-serif" font-size="5">Thu</text>
  <text x="136" y="92" text-anchor="middle" fill="#888" font-family="sans-serif" font-size="5">Fri</text>
  <circle cx="24" cy="100" r="3" fill="#f5a623"/>
  <circle cx="52" cy="100" r="3" fill="#888" opacity="0.4"/>
  <circle cx="80" cy="100" r="3" fill="#3b82f6" opacity="0.5"/>
  <circle cx="108" cy="100" r="3" fill="#888" opacity="0.3"/>
  <circle cx="136" cy="100" r="3" fill="#f5a623"/>
  <text x="24" y="108" text-anchor="middle" fill="#fff" font-family="sans-serif" font-size="6">25°</text>
  <text x="52" y="108" text-anchor="middle" fill="#fff" font-family="sans-serif" font-size="6">22°</text>
  <text x="80" y="108" text-anchor="middle" fill="#fff" font-family="sans-serif" font-size="6">19°</text>
  <text x="108" y="108" text-anchor="middle" fill="#fff" font-family="sans-serif" font-size="6">20°</text>
  <text x="136" y="108" text-anchor="middle" fill="#fff" font-family="sans-serif" font-size="6">25°</text>
</svg>
