<svg xmlns="http://www.w3.org/2000/svg" viewBox="0 0 160 120" width="160" height="120">
  <rect x="0" y="0" width="160" height="120" rx="8" ry="8" fill="#000"/>
  <text x="80" y="10" text-anchor="middle" fill="#888" font-family="sans-serif" font-size="6">Enter code to disarm</text>
  <!-- 3x4 keypad filling the height -->
  <g transform="translate(80,22)">
    <rect x="-45" y="0" width="26" height="20" rx="4" fill="#333"/>
    <text x="-32" y="14" text-anchor="middle" fill="#fff" font-family="sans-serif" font-size="9">1</text>
    <rect x="-13" y="0" width="26" height="20" rx="4" fill="#333"/>
    <text x="0" y="14" text-anchor="middle" fill="#fff" font-family="sans-serif" font-size="9">2</text>
    <rect x="19" y="0" width="26" height="20" rx="4" fill="#333"/>
    <text x="32" y="14" text-anchor="middle" fill="#fff" font-family="sans-serif" font-size="9">3</text>
    <rect x="-45" y="24" width="26" height="20" rx="4" fill="#333"/>
    <text x="-32" y="38" text-anchor="middle" fill="#fff" font-family="sans-serif" font-size="9">4</text>
    <rect x="-13" y="24" width="26" height="20" rx="4" fill="#333"/>
    <text x="0" y="38" text-anchor="middle" fill="#fff" font-family="sans-serif" font-size="9">5</text>
    <rect x="19" y="24" width="26" height="20" rx="4" fill="#333"/>
    <text x="32" y="38" text-anchor="middle" fill="#fff" font-family="sans-serif" font-size="9">6</text>
    <rect x="-45" y="48" width="26" height="20" rx="4" fill="#333"/>
    <text x="-32" y="62" text-anchor="middle" fill="#fff" font-family="sans-serif" font-size="9">7</text>
    <rect x="-13" y="48" width="26" height="20" rx="4" fill="#333"/>
    <text x="0" y="62" text-anchor="middle" fill="#fff" font-family="sans-serif" font-size="9">8</text>
    <rect x="19" y="48" width="26" height="20" rx="4" fill="#333"/>
    <text x="32" y="62" text-anchor="middle" fill="#fff" font-family="sans-serif" font-size="9">9</text>
    <rect x="-45" y="72" width="26" height="20" rx="4" fill="#333"/>
    <text x="-32" y="86" text-anchor="middle" fill="#fff" font-family="sans-serif" font-size="9">*</text>
    <rect x="-13" y="72" width="26" height="20" rx="4" fill="#333"/>
    <text x="0" y="86" text-anchor="middle" fill="#fff" font-family="sans-serif" font-size="9">0</text>
    <rect x="19" y="72" width="26" height="20" rx="4" fill="#333"/>
    <text x="32" y="86" text-anchor="middle" fill="#fff" font-family="sans-serif" font-size="9">#</text>
  </g>
</svg>
