<svg xmlns="http://www.w3.org/2000/svg" viewBox="0 0 160 120" width="160" height="120">
  <rect x="0" y="0" width="160" height="120" rx="8" ry="8" fill="#000"/>
  <!-- 10x10 letter grid (simplified word clock) -->
  <g font-family="sans-serif" font-size="6" text-anchor="middle" fill="#444">
    <!-- Row 0 -->
    <text x="12" y="16" fill="#3b82f6">I</text><text x="26" y="16" fill="#3b82f6">T</text><text x="40" y="16">L</text><text x="54" y="16">I</text><text x="68" y="16" fill="#3b82f6">I</text><text x="82" y="16" fill="#3b82f6">S</text><text x="96" y="16">W</text><text x="110" y="16">X</text><text x="124" y="16">H</text><text x="138" y="16" fill="#60a5fa">T</text>
    <!-- Row 1 -->
    <text x="12" y="26">E</text><text x="26" y="26">N</text><text x="40" y="26">Q</text><text x="54" y="26">U</text><text x="68" y="26">A</text><text x="82" y="26">R</text><text x="96" y="26" fill="#3b82f6">T</text><text x="110" y="26" fill="#3b82f6">E</text><text x="124" y="26" fill="#3b82f6">N</text><text x="138" y="26">R</text>
    <!-- Row 2 -->
    <text x="12" y="36">Y</text><text x="26" y="36" fill="#60a5fa">F</text><text x="40" y="36" fill="#60a5fa">I</text><text x="54" y="36" fill="#60a5fa">V</text><text x="68" y="36" fill="#60a5fa">E</text><text x="82" y="36">X</text><text x="96" y="36">H</text><text x="110" y="36">A</text><text x="124" y="36">L</text><text x="138" y="36">F</text>
    <!-- Row 3 -->
    <text x="12" y="46">B</text><text x="26" y="46" fill="#3b82f6">T</text><text x="40" y="46" fill="#3b82f6">E</text><text x="54" y="46" fill="#3b82f6">N</text><text x="68" y="46">F</text><text x="82" y="46">T</text><text x="96" y="46">O</text><text x="110" y="46">P</text><text x="124" y="46">A</text><text x="138" y="46">S</text>
    <!-- Row 4 -->
    <text x="12" y="56">T</text><text x="26" y="56">E</text><text x="40" y="56">R</text><text x="54" y="56">U</text><text x="68" y="56">N</text><text x="82" y="56">I</text><text x="96" y="56">N</text><text x="110" y="56" fill="#2563eb">E</text><text x="124" y="56">O</text><text x="138" y="56">N</text>
    <!-- Row 5 -->
    <text x="12" y="66">E</text><text x="26" y="66">S</text><text x="40" y="66">I</text><text x="54" y="66">X</text><text x="68" y="66">T</text><text x="82" y="66">H</text><text x="96" y="66">R</text><text x="110" y="66">E</text><text x="124" y="66">E</text><text x="138" y="66">F</text>
    <!-- Row 6 -->
    <text x="12" y="76">O</text><text x="26" y="76">U</text><text x="40" y="76">R</text><text x="54" y="76">F</text><text x="68" y="76">I</text><text x="82" y="76">V</text><text x="96" y="76">E</text><text x="110" y="76">T</text><text x="124" y="76">W</text><text x="138" y="76">O</text>
    <!-- Row 7 -->
    <text x="12" y="86">E</text><text x="26" y="86">I</text><text x="40" y="86">G</text><text x="54" y="86">H</text><text x="68" y="86">T</text><text x="82" y="86" fill="#60a5fa">E</text><text x="96" y="86" fill="#60a5fa">L</text><text x="110" y="86" fill="#60a5fa">E</text><text x="124" y="86" fill="#60a5fa">V</text><text x="138" y="86" fill="#60a5fa">E</text>
    <!-- Row 8 -->
    <text x="12" y="96">N</text><text x="26" y="96">S</text><text x="40" y="96">E</text><text x="54" y="96">V</text><text x="68" y="96">E</text><text x="82" y="96">N</text><text x="96" y="96">T</text><text x="110" y="96">W</text><text x="124" y="96">E</text><text x="138" y="96">L</text>
    <!-- Row 9 -->
    <text x="12" y="106">V</text><text x="26" y="106">E</text><text x="40" y="106" fill="#3b82f6">T</text><text x="54" y="106" fill="#3b82f6">E</text><text x="68" y="106" fill="#3b82f6">N</text><text x="82" y="106">S</text><text x="96" y="106">E</text><text x="110" y="106" fill="#3b82f6">O</text><text x="124" y="106">C</text><text x="138" y="106">L</text>
  </g>
  <!-- Notification icon -->
  <circle cx="152" cy="72" r="5" fill="#3b82f6" opacity="0.4"/>
</svg>
