<svg xmlns="http://www.w3.org/2000/svg" viewBox="0 0 160 120" width="160" height="120">
  <rect x="0" y="0" width="160" height="120" rx="8" ry="8" fill="#000" stroke="#444" stroke-width="1.5"/>
  <text x="80" y="14" text-anchor="middle" fill="#fff" font-family="sans-serif" font-size="9" font-weight="bold">Alarm</text>
  <!-- Status -->
  <text x="80" y="26" text-anchor="middle" fill="#aaa" font-family="sans-serif" font-size="6">Enter code to disarm</text>
  <!-- 3x4 keypad -->
  <g transform="translate(80,33)">
    <!-- Row 1: 1 2 3 -->
    <rect x="-45" y="0" width="26" height="16" rx="4" fill="#333"/>
    <text x="-32" y="11" text-anchor="middle" fill="#fff" font-family="sans-serif" font-size="8">1</text>
    <rect x="-13" y="0" width="26" height="16" rx="4" fill="#333"/>
    <text x="0" y="11" text-anchor="middle" fill="#fff" font-family="sans-serif" font-size="8">2</text>
    <rect x="19" y="0" width="26" height="16" rx="4" fill="#333"/>
    <text x="32" y="11" text-anchor="middle" fill="#fff" font-family="sans-serif" font-size="8">3</text>
    <!-- Row 2: 4 5 6 -->
    <rect x="-45" y="19" width="26" height="16" rx="4" fill="#333"/>
    <text x="-32" y="30" text-anchor="middle" fill="#fff" font-family="sans-serif" font-size="8">4</text>
    <rect x="-13" y="19" width="26" height="16" rx="4" fill="#333"/>
    <text x="0" y="30" text-anchor="middle" fill="#fff" font-family="sans-serif" font-size="8">5</text>
    <rect x="19" y="19" width="26" height="16" rx="4" fill="#333"/>
    <text x="32" y="30" text-anchor="middle" fill="#fff" font-family="sans-serif" font-size="8">6</text>
    <!-- Row 3: 7 8 9 -->
    <rect x="-45" y="38" width="26" height="16" rx="4" fill="#333"/>
    <text x="-32" y="49" text-anchor="middle" fill="#fff" font-family="sans-serif" font-size="8">7</text>
    <rect x="-13" y="38" width="26" height="16" rx="4" fill="#333"/>
    <text x="0" y="49" text-anchor="middle" fill="#fff" font-family="sans-serif" font-size="8">8</text>
    <rect x="19" y="38" width="26" height="16" rx="4" fill="#333"/>
    <text x="32" y="49" text-anchor="middle" fill="#fff" font-family="sans-serif" font-size="8">9</text>
    <!-- Last row: * 0 # -->
    <rect x="-45" y="57" width="26" height="16" rx="4" fill="#333"/>
    <text x="-32" y="68" text-anchor="middle" fill="#fff" font-family="sans-serif" font-size="8">*</text>
    <rect x="-13" y="57" width="26" height="16" rx="4" fill="#333"/>
    <text x="0" y="68" text-anchor="middle" fill="#fff" font-family="sans-serif" font-size="8">0</text>
    <rect x="19" y="57" width="26" height="16" rx="4" fill="#333"/>
    <text x="32" y="68" text-anchor="middle" fill="#fff" font-family="sans-serif" font-size="8">#</text>
  </g>
</svg>
