<svg xmlns="http://www.w3.org/2000/svg" viewBox="0 0 160 120" width="160" height="120">
  <rect x="0" y="0" width="160" height="120" rx="8" ry="8" fill="#1a1a2e" stroke="#444" stroke-width="1.5"/>
  <text x="80" y="14" text-anchor="middle" fill="#fff" font-family="sans-serif" font-size="9" font-weight="bold">Cover</text>
  <!-- Up / Stop / Down button tiles -->
  <rect x="26" y="22" width="44" height="18" rx="4" fill="rgba(255,255,255,0.06)"/>
  <polygon points="48,26 41,35 55,35" fill="#ccc"/>
  <rect x="26" y="44" width="44" height="18" rx="4" fill="rgba(255,255,255,0.06)"/>
  <rect x="43" y="49" width="10" height="8" rx="1.5" fill="#f59e0b" opacity="0.8"/>
  <rect x="26" y="66" width="44" height="18" rx="4" fill="rgba(255,255,255,0.06)"/>
  <polygon points="48,80 41,71 55,71" fill="#ccc"/>
  <!-- Vertical position slider -->
  <rect x="106" y="22" width="10" height="62" rx="5" fill="#333"/>
  <rect x="106" y="22" width="10" height="31" rx="5" fill="#3b82f6" opacity="0.6"/>
  <rect x="102" y="48" width="18" height="8" rx="4" fill="#fff"/>
  <!-- Labels -->
  <text x="80" y="99" text-anchor="middle" fill="#aaa" font-family="sans-serif" font-size="6">Living Room Blinds</text>
  <text x="80" y="111" text-anchor="middle" fill="#f59e0b" font-family="sans-serif" font-size="7" font-weight="bold">50% open</text>
</svg>
