<svg xmlns="http://www.w3.org/2000/svg" viewBox="0 0 160 120" width="160" height="120">
  <rect x="0" y="0" width="160" height="120" rx="8" ry="8" fill="#1a1a2e" stroke="#444" stroke-width="1.5"/>
  <text x="80" y="14" text-anchor="middle" fill="#fff" font-family="sans-serif" font-size="9" font-weight="bold">ClockTwo</text>
  <!-- Letter grid: 11 columns x 10 rows -->
  <g font-family="sans-serif" font-size="6" text-anchor="middle">
    <text x="13" y="26" fill="#3b82f6">I</text><text x="27" y="26" fill="#3b82f6">T</text><text x="41" y="26" fill="#555">L</text><text x="55" y="26" fill="#555">I</text><text x="69" y="26" fill="#3b82f6">I</text><text x="83" y="26" fill="#3b82f6">S</text><text x="97" y="26" fill="#555">W</text><text x="111" y="26" fill="#555">X</text><text x="125" y="26" fill="#555">H</text><text x="139" y="26" fill="#555">Z</text><text x="153" y="26" fill="#555">D</text>
    <text x="13" y="36" fill="#22c55e">T</text><text x="27" y="36" fill="#555">E</text><text x="41" y="36" fill="#555">N</text><text x="55" y="36" fill="#555">Q</text><text x="69" y="36" fill="#555">U</text><text x="83" y="36" fill="#555">A</text><text x="97" y="36" fill="#555">R</text><text x="111" y="36" fill="#555">T</text><text x="125" y="36" fill="#555">E</text><text x="139" y="36" fill="#555">R</text><text x="153" y="36" fill="#555">Y</text>
    <text x="13" y="46" fill="#3b82f6">H</text><text x="27" y="46" fill="#3b82f6">A</text><text x="41" y="46" fill="#3b82f6">L</text><text x="55" y="46" fill="#3b82f6">F</text><text x="69" y="46" fill="#555">B</text><text x="83" y="46" fill="#555">E</text><text x="97" y="46" fill="#555">F</text><text x="111" y="46" fill="#555">O</text><text x="125" y="46" fill="#555">R</text><text x="139" y="46" fill="#555">E</text><text x="153" y="46" fill="#555">V</text>
    <text x="13" y="56" fill="#555">M</text><text x="27" y="56" fill="#555">I</text><text x="41" y="56" fill="#555">N</text><text x="55" y="56" fill="#f59e0b">T</text><text x="69" y="56" fill="#f59e0b">W</text><text x="83" y="56" fill="#f59e0b">E</text><text x="97" y="56" fill="#f59e0b">N</text><text x="111" y="56" fill="#f59e0b">T</text><text x="125" y="56" fill="#f59e0b">Y</text><text x="139" y="56" fill="#555">N</text><text x="153" y="56" fill="#555">P</text>
    <text x="13" y="66" fill="#ff9800">T</text><text x="27" y="66" fill="#ff9800">H</text><text x="41" y="66" fill="#ff9800">I</text><text x="55" y="66" fill="#ff9800">R</text><text x="69" y="66" fill="#ff9800">T</text><text x="83" y="66" fill="#ff9800">E</text><text x="97" y="66" fill="#ff9800">E</text><text x="111" y="66" fill="#ff9800">N</text><text x="125" y="66" fill="#555">X</text><text x="139" y="66" fill="#555">V</text><text x="153" y="66" fill="#555">A</text>
    <text x="13" y="76" fill="#3b82f6">N</text><text x="27" y="76" fill="#3b82f6">I</text><text x="41" y="76" fill="#3b82f6">N</text><text x="55" y="76" fill="#3b82f6">E</text><text x="69" y="76" fill="#555">M</text><text x="83" y="76" fill="#555">I</text><text x="97" y="76" fill="#555">D</text><text x="111" y="76" fill="#555">N</text><text x="125" y="76" fill="#555">I</text><text x="139" y="76" fill="#555">G</text><text x="153" y="76" fill="#555">H</text>
    <text x="13" y="86" fill="#555">T</text><text x="27" y="86" fill="#555">E</text><text x="41" y="86" fill="#555">N</text><text x="55" y="86" fill="#555">J</text><text x="69" y="86" fill="#555">E</text><text x="83" y="86" fill="#555">L</text><text x="97" y="86" fill="#555">E</text><text x="111" y="86" fill="#555">V</text><text x="125" y="86" fill="#555">E</text><text x="139" y="86" fill="#555">N</text><text x="153" y="86" fill="#555">S</text>
    <text x="13" y="96" fill="#555">S</text><text x="27" y="96" fill="#555">I</text><text x="41" y="96" fill="#555">X</text><text x="55" y="96" fill="#555">M</text><text x="69" y="96" fill="#555">I</text><text x="83" y="96" fill="#555">D</text><text x="97" y="96" fill="#a855f7">T</text><text x="111" y="96" fill="#a855f7">E</text><text x="125" y="96" fill="#a855f7">N</text><text x="139" y="96" fill="#555">K</text><text x="153" y="96" fill="#555">V</text>
    <text x="13" y="106" fill="#555">E</text><text x="27" y="106" fill="#555">I</text><text x="41" y="106" fill="#555">G</text><text x="55" y="106" fill="#555">H</text><text x="69" y="106" fill="#555">T</text><text x="83" y="106" fill="#a855f7">O</text><text x="97" y="106" fill="#555">C</text><text x="111" y="106" fill="#555">L</text><text x="125" y="106" fill="#555">O</text><text x="139" y="106" fill="#555">C</text><text x="153" y="106" fill="#555">K</text>
    <text x="13" y="116" fill="#555">P</text><text x="27" y="116" fill="#555">A</text><text x="41" y="116" fill="#555">S</text><text x="55" y="116" fill="#555">T</text><text x="69" y="116" fill="#555">F</text><text x="83" y="116" fill="#555">I</text><text x="97" y="116" fill="#555">V</text><text x="111" y="116" fill="#555">E</text><text x="125" y="116" fill="#555">B</text><text x="139" y="116" fill="#555">Z</text><text x="153" y="116" fill="#555">H</text>
  </g>
</svg>
