<svg xmlns="http://www.w3.org/2000/svg" viewBox="0 0 160 120" width="160" height="120">
  <rect x="0" y="0" width="160" height="120" rx="8" ry="8" fill="#000"/>
  <g transform="translate(38,17)">
    <!-- Top-left finder pattern -->
    <rect x="0" y="0" width="5" height="5" fill="#fff"/><rect x="5" y="0" width="5" height="5" fill="#fff"/><rect x="10" y="0" width="5" height="5" fill="#fff"/><rect x="15" y="0" width="5" height="5" fill="#fff"/><rect x="20" y="0" width="5" height="5" fill="#fff"/><rect x="25" y="0" width="5" height="5" fill="#fff"/><rect x="30" y="0" width="5" height="5" fill="#fff"/>
    <rect x="0" y="5" width="5" height="5" fill="#fff"/><rect x="5" y="5" width="5" height="5" fill="#000"/><rect x="10" y="5" width="5" height="5" fill="#000"/><rect x="15" y="5" width="5" height="5" fill="#000"/><rect x="20" y="5" width="5" height="5" fill="#000"/><rect x="25" y="5" width="5" height="5" fill="#000"/><rect x="30" y="5" width="5" height="5" fill="#fff"/>
    <rect x="0" y="10" width="5" height="5" fill="#fff"/><rect x="5" y="10" width="5" height="5" fill="#000"/><rect x="10" y="10" width="5" height="5" fill="#fff"/><rect x="15" y="10" width="5" height="5" fill="#fff"/><rect x="20" y="10" width="5" height="5" fill="#fff"/><rect x="25" y="10" width="5" height="5" fill="#000"/><rect x="30" y="10" width="5" height="5" fill="#fff"/>
    <rect x="0" y="15" width="5" height="5" fill="#fff"/><rect x="5" y="15" width="5" height="5" fill="#000"/><rect x="10" y="15" width="5" height="5" fill="#fff"/><rect x="15" y="15" width="5" height="5" fill="#fff"/><rect x="20" y="15" width="5" height="5" fill="#fff"/><rect x="25" y="15" width="5" height="5" fill="#000"/><rect x="30" y="15" width="5" height="5" fill="#fff"/>
    <rect x="0" y="20" width="5" height="5" fill="#fff"/><rect x="5" y="20" width="5" height="5" fill="#000"/><rect x="10" y="20" width="5" height="5" fill="#fff"/><rect x="15" y="20" width="5" height="5" fill="#fff"/><rect x="20" y="20" width="5" height="5" fill="#fff"/><rect x="25" y="20" width="5" height="5" fill="#000"/><rect x="30" y="20" width="5" height="5" fill="#fff"/>
    <rect x="0" y="25" width="5" height="5" fill="#fff"/><rect x="5" y="25" width="5" height="5" fill="#000"/><rect x="10" y="25" width="5" height="5" fill="#000"/><rect x="15" y="25" width="5" height="5" fill="#000"/><rect x="20" y="25" width="5" height="5" fill="#000"/><rect x="25" y="25" width="5" height="5" fill="#000"/><rect x="30" y="25" width="5" height="5" fill="#fff"/>
    <rect x="0" y="30" width="5" height="5" fill="#fff"/><rect x="5" y="30" width="5" height="5" fill="#fff"/><rect x="10" y="30" width="5" height="5" fill="#fff"/><rect x="15" y="30" width="5" height="5" fill="#fff"/><rect x="20" y="30" width="5" height="5" fill="#fff"/><rect x="25" y="30" width="5" height="5" fill="#fff"/><rect x="30" y="30" width="5" height="5" fill="#fff"/>
    <!-- Top-right finder pattern -->
    <rect x="50" y="0" width="5" height="5" fill="#fff"/><rect x="55" y="0" width="5" height="5" fill="#fff"/><rect x="60" y="0" width="5" height="5" fill="#fff"/><rect x="65" y="0" width="5" height="5" fill="#fff"/><rect x="70" y="0" width="5" height="5" fill="#fff"/><rect x="75" y="0" width="5" height="5" fill="#fff"/><rect x="80" y="0" width="5" height="5" fill="#fff"/>
    <rect x="50" y="5" width="5" height="5" fill="#fff"/><rect x="55" y="5" width="5" height="5" fill="#000"/><rect x="60" y="5" width="5" height="5" fill="#000"/><rect x="65" y="5" width="5" height="5" fill="#000"/><rect x="70" y="5" width="5" height="5" fill="#000"/><rect x="75" y="5" width="5" height="5" fill="#000"/><rect x="80" y="5" width="5" height="5" fill="#fff"/>
    <rect x="50" y="10" width="5" height="5" fill="#fff"/><rect x="55" y="10" width="5" height="5" fill="#000"/><rect x="60" y="10" width="5" height="5" fill="#fff"/><rect x="65" y="10" width="5" height="5" fill="#fff"/><rect x="70" y="10" width="5" height="5" fill="#fff"/><rect x="75" y="10" width="5" height="5" fill="#000"/><rect x="80" y="10" width="5" height="5" fill="#fff"/>
    <rect x="50" y="15" width="5" height="5" fill="#fff"/><rect x="55" y="15" width="5" height="5" fill="#000"/><rect x="60" y="15" width="5" height="5" fill="#fff"/><rect x="65" y="15" width="5" height="5" fill="#fff"/><rect x="70" y="15" width="5" height="5" fill="#fff"/><rect x="75" y="15" width="5" height="5" fill="#000"/><rect x="80" y="15" width="5" height="5" fill="#fff"/>
    <rect x="50" y="20" width="5" height="5" fill="#fff"/><rect x="55" y="20" width="5" height="5" fill="#000"/><rect x="60" y="20" width="5" height="5" fill="#fff"/><rect x="65" y="20" width="5" height="5" fill="#fff"/><rect x="70" y="20" width="5" height="5" fill="#fff"/><rect x="75" y="20" width="5" height="5" fill="#000"/><rect x="80" y="20" width="5" height="5" fill="#fff"/>
    <rect x="50" y="25" width="5" height="5" fill="#fff"/><rect x="55" y="25" width="5" height="5" fill="#000"/><rect x="60" y="25" width="5" height="5" fill="#000"/><rect x="65" y="25" width="5" height="5" fill="#000"/><rect x="70" y="25" width="5" height="5" fill="#000"/><rect x="75" y="25" width="5" height="5" fill="#000"/><rect x="80" y="25" width="5" height="5" fill="#fff"/>
    <rect x="50" y="30" width="5" height="5" fill="#fff"/><rect x="55" y="30" width="5" height="5" fill="#fff"/><rect x="60" y="30" width="5" height="5" fill="#fff"/><rect x="65" y="30" width="5" height="5" fill="#fff"/><rect x="70" y="30" width="5" height="5" fill="#fff"/><rect x="75" y="30" width="5" height="5" fill="#fff"/><rect x="80" y="30" width="5" height="5" fill="#fff"/>
    <!-- Bottom-left finder pattern -->
    <rect x="0" y="50" width="5" height="5" fill="#fff"/><rect x="5" y="50" width="5" height="5" fill="#fff"/><rect x="10" y="50" width="5" height="5" fill="#fff"/><rect x="15" y="50" width="5" height="5" fill="#fff"/><rect x="20" y="50" width="5" height="5" fill="#fff"/><rect x="25" y="50" width="5" height="5" fill="#fff"/><rect x="30" y="50" width="5" height="5" fill="#fff"/>
    <rect x="0" y="55" width="5" height="5" fill="#fff"/><rect x="5" y="55" width="5" height="5" fill="#000"/><rect x="10" y="55" width="5" height="5" fill="#000"/><rect x="15" y="55" width="5" height="5" fill="#000"/><rect x="20" y="55" width="5" height="5" fill="#000"/><rect x="25" y="55" width="5" height="5" fill="#000"/><rect x="30" y="55" width="5" height="5" fill="#fff"/>
    <rect x="0" y="60" width="5" height="5" fill="#fff"/><rect x="5" y="60" width="5" height="5" fill="#000"/><rect x="10" y="60" width="5" height="5" fill="#fff"/><rect x="15" y="60" width="5" height="5" fill="#fff"/><rect x="20" y="60" width="5" height="5" fill="#fff"/><rect x="25" y="60" width="5" height="5" fill="#000"/><rect x="30" y="60" width="5" height="5" fill="#fff"/>
    <rect x="0" y="65" width="5" height="5" fill="#fff"/><rect x="5" y="65" width="5" height="5" fill="#000"/><rect x="10" y="65" width="5" height="5" fill="#fff"/><rect x="15" y="65" width="5" height="5" fill="#fff"/><rect x="20" y="65" width="5" height="5" fill="#fff"/><rect x="25" y="65" width="5" height="5" fill="#000"/><rect x="30" y="65" width="5" height="5" fill="#fff"/>
    <rect x="0" y="70" width="5" height="5" fill="#fff"/><rect x="5" y="70" width="5" height="5" fill="#000"/><rect x="10" y="70" width="5" height="5" fill="#fff"/><rect x="15" y="70" width="5" height="5" fill="#fff"/><rect x="20" y="70" width="5" height="5" fill="#fff"/><rect x="25" y="70" width="5" height="5" fill="#000"/><rect x="30" y="70" width="5" height="5" fill="#fff"/>
    <rect x="0" y="75" width="5" height="5" fill="#fff"/><rect x="5" y="75" width="5" height="5" fill="#000"/><rect x="10" y="75" width="5" height="5" fill="#000"/><rect x="15" y="75" width="5" height="5" fill="#000"/><rect x="20" y="75" width="5" height="5" fill="#000"/><rect x="25" y="75" width="5" height="5" fill="#000"/><rect x="30" y="75" width="5" height="5" fill="#fff"/>
    <rect x="0" y="80" width="5" height="5" fill="#fff"/><rect x="5" y="80" width="5" height="5" fill="#fff"/><rect x="10" y="80" width="5" height="5" fill="#fff"/><rect x="15" y="80" width="5" height="5" fill="#fff"/><rect x="20" y="80" width="5" height="5" fill="#fff"/><rect x="25" y="80" width="5" height="5" fill="#fff"/><rect x="30" y="80" width="5" height="5" fill="#fff"/>
    <!-- Timing patterns row+col 6 -->
    <rect x="35" y="30" width="5" height="5" fill="#000"/><rect x="40" y="30" width="5" height="5" fill="#fff"/><rect x="45" y="30" width="5" height="5" fill="#000"/><rect x="50" y="30" width="5" height="5" fill="#fff"/><rect x="55" y="30" width="5" height="5" fill="#000"/><rect x="60" y="30" width="5" height="5" fill="#fff"/><rect x="65" y="30" width="5" height="5" fill="#000"/><rect x="70" y="30" width="5" height="5" fill="#fff"/><rect x="75" y="30" width="5" height="5" fill="#000"/><rect x="80" y="30" width="5" height="5" fill="#fff"/>
    <rect x="30" y="35" width="5" height="5" fill="#000"/><rect x="30" y="40" width="5" height="5" fill="#fff"/><rect x="30" y="45" width="5" height="5" fill="#000"/><rect x="30" y="50" width="5" height="5" fill="#fff"/><rect x="30" y="55" width="5" height="5" fill="#000"/><rect x="30" y="60" width="5" height="5" fill="#fff"/><rect x="30" y="65" width="5" height="5" fill="#000"/><rect x="30" y="70" width="5" height="5" fill="#fff"/><rect x="30" y="75" width="5" height="5" fill="#000"/><rect x="30" y="80" width="5" height="5" fill="#fff"/>
    <!-- Dark module -->
    <rect x="40" y="40" width="5" height="5" fill="#000"/>
    <!-- Data area above top-left finder -->
    <rect x="35" y="0" width="5" height="5" fill="#000"/><rect x="40" y="0" width="5" height="5" fill="#fff"/><rect x="45" y="0" width="5" height="5" fill="#fff"/>
    <rect x="35" y="5" width="5" height="5" fill="#000"/><rect x="40" y="5" width="5" height="5" fill="#fff"/><rect x="45" y="5" width="5" height="5" fill="#fff"/>
    <rect x="35" y="10" width="5" height="5" fill="#fff"/><rect x="40" y="10" width="5" height="5" fill="#000"/><rect x="45" y="10" width="5" height="5" fill="#fff"/>
    <rect x="35" y="15" width="5" height="5" fill="#000"/><rect x="40" y="15" width="5" height="5" fill="#000"/><rect x="45" y="15" width="5" height="5" fill="#fff"/>
    <rect x="35" y="20" width="5" height="5" fill="#fff"/><rect x="40" y="20" width="5" height="5" fill="#000"/><rect x="45" y="20" width="5" height="5" fill="#000"/>
    <rect x="35" y="25" width="5" height="5" fill="#fff"/><rect x="40" y="25" width="5" height="5" fill="#000"/><rect x="45" y="25" width="5" height="5" fill="#000"/>
    <!-- Data area left of bottom-left finder -->
    <rect x="0" y="35" width="5" height="5" fill="#000"/><rect x="5" y="35" width="5" height="5" fill="#fff"/><rect x="10" y="35" width="5" height="5" fill="#000"/><rect x="15" y="35" width="5" height="5" fill="#fff"/><rect x="20" y="35" width="5" height="5" fill="#fff"/><rect x="25" y="35" width="5" height="5" fill="#fff"/>
    <!-- Data area -->
    <rect x="35" y="35" width="5" height="5" fill="#fff"/><rect x="45" y="35" width="5" height="5" fill="#fff"/>
    <rect x="50" y="35" width="5" height="5" fill="#000"/><rect x="55" y="35" width="5" height="5" fill="#fff"/><rect x="60" y="35" width="5" height="5" fill="#fff"/><rect x="65" y="35" width="5" height="5" fill="#fff"/><rect x="70" y="35" width="5" height="5" fill="#000"/><rect x="75" y="35" width="5" height="5" fill="#000"/><rect x="80" y="35" width="5" height="5" fill="#fff"/>
    <rect x="35" y="40" width="5" height="5" fill="#fff"/><rect x="45" y="40" width="5" height="5" fill="#fff"/>
    <rect x="50" y="40" width="5" height="5" fill="#000"/><rect x="55" y="40" width="5" height="5" fill="#fff"/><rect x="60" y="40" width="5" height="5" fill="#fff"/><rect x="65" y="40" width="5" height="5" fill="#fff"/><rect x="70" y="40" width="5" height="5" fill="#fff"/><rect x="75" y="40" width="5" height="5" fill="#fff"/><rect x="80" y="40" width="5" height="5" fill="#fff"/>
    <rect x="35" y="45" width="5" height="5" fill="#000"/><rect x="40" y="45" width="5" height="5" fill="#fff"/><rect x="45" y="45" width="5" height="5" fill="#fff"/>
    <rect x="50" y="45" width="5" height="5" fill="#fff"/><rect x="55" y="45" width="5" height="5" fill="#fff"/><rect x="60" y="45" width="5" height="5" fill="#fff"/><rect x="65" y="45" width="5" height="5" fill="#fff"/><rect x="70" y="45" width="5" height="5" fill="#000"/><rect x="75" y="45" width="5" height="5" fill="#fff"/><rect x="80" y="45" width="5" height="5" fill="#000"/>
    <rect x="35" y="50" width="5" height="5" fill="#fff"/><rect x="40" y="50" width="5" height="5" fill="#fff"/><rect x="45" y="50" width="5" height="5" fill="#fff"/>
    <rect x="50" y="50" width="5" height="5" fill="#fff"/><rect x="55" y="50" width="5" height="5" fill="#fff"/><rect x="60" y="50" width="5" height="5" fill="#000"/><rect x="65" y="50" width="5" height="5" fill="#fff"/><rect x="70" y="50" width="5" height="5" fill="#fff"/><rect x="75" y="50" width="5" height="5" fill="#fff"/><rect x="80" y="50" width="5" height="5" fill="#fff"/>
    <rect x="35" y="55" width="5" height="5" fill="#000"/><rect x="40" y="55" width="5" height="5" fill="#000"/><rect x="45" y="55" width="5" height="5" fill="#fff"/>
    <rect x="50" y="55" width="5" height="5" fill="#fff"/><rect x="55" y="55" width="5" height="5" fill="#000"/><rect x="60" y="55" width="5" height="5" fill="#000"/><rect x="65" y="55" width="5" height="5" fill="#fff"/><rect x="70" y="55" width="5" height="5" fill="#fff"/><rect x="75" y="55" width="5" height="5" fill="#fff"/><rect x="80" y="55" width="5" height="5" fill="#000"/>
    <rect x="35" y="60" width="5" height="5" fill="#fff"/><rect x="40" y="60" width="5" height="5" fill="#fff"/><rect x="45" y="60" width="5" height="5" fill="#fff"/>
    <rect x="50" y="60" width="5" height="5" fill="#fff"/><rect x="55" y="60" width="5" height="5" fill="#fff"/><rect x="60" y="60" width="5" height="5" fill="#fff"/><rect x="65" y="60" width="5" height="5" fill="#000"/><rect x="70" y="60" width="5" height="5" fill="#fff"/><rect x="75" y="60" width="5" height="5" fill="#fff"/><rect x="80" y="60" width="5" height="5" fill="#000"/>
    <rect x="35" y="65" width="5" height="5" fill="#fff"/><rect x="40" y="65" width="5" height="5" fill="#000"/><rect x="45" y="65" width="5" height="5" fill="#000"/>
    <rect x="50" y="65" width="5" height="5" fill="#fff"/><rect x="55" y="65" width="5" height="5" fill="#fff"/><rect x="60" y="65" width="5" height="5" fill="#fff"/><rect x="65" y="65" width="5" height="5" fill="#fff"/><rect x="70" y="65" width="5" height="5" fill="#fff"/><rect x="75" y="65" width="5" height="5" fill="#fff"/><rect x="80" y="65" width="5" height="5" fill="#000"/>
    <rect x="35" y="70" width="5" height="5" fill="#fff"/><rect x="40" y="70" width="5" height="5" fill="#000"/><rect x="45" y="70" width="5" height="5" fill="#fff"/>
    <rect x="50" y="70" width="5" height="5" fill="#fff"/><rect x="55" y="70" width="5" height="5" fill="#fff"/><rect x="60" y="70" width="5" height="5" fill="#fff"/><rect x="65" y="70" width="5" height="5" fill="#000"/><rect x="70" y="70" width="5" height="5" fill="#fff"/><rect x="75" y="70" width="5" height="5" fill="#fff"/><rect x="80" y="70" width="5" height="5" fill="#fff"/>
    <rect x="35" y="75" width="5" height="5" fill="#fff"/><rect x="40" y="75" width="5" height="5" fill="#fff"/><rect x="45" y="75" width="5" height="5" fill="#000"/>
    <rect x="50" y="75" width="5" height="5" fill="#000"/><rect x="55" y="75" width="5" height="5" fill="#fff"/><rect x="60" y="75" width="5" height="5" fill="#fff"/><rect x="65" y="75" width="5" height="5" fill="#000"/><rect x="70" y="75" width="5" height="5" fill="#000"/><rect x="75" y="75" width="5" height="5" fill="#fff"/><rect x="80" y="75" width="5" height="5" fill="#fff"/>
    <rect x="35" y="80" width="5" height="5" fill="#fff"/><rect x="40" y="80" width="5" height="5" fill="#fff"/><rect x="45" y="80" width="5" height="5" fill="#fff"/>
    <rect x="50" y="80" width="5" height="5" fill="#000"/><rect x="55" y="80" width="5" height="5" fill="#fff"/><rect x="60" y="80" width="5" height="5" fill="#fff"/><rect x="65" y="80" width="5" height="5" fill="#fff"/><rect x="70" y="80" width="5" height="5" fill="#fff"/><rect x="75" y="80" width="5" height="5" fill="#fff"/><rect x="80" y="80" width="5" height="5" fill="#fff"/>
  </g>
</svg>
